<svg version="1.2" xmlns="http://www.w3.org/2000/svg" viewBox="0 0 2508 1648" width="2508" height="1648">
	<title>construc-ai</title>
	<style>
		.s0 { fill: #dddddd } 
		.s1 { fill: #e6e6e6 } 
		.s2 { fill: #cccccc } 
		.s3 { fill: #8399a5 } 
		.s4 { fill: #b3b3b3 } 
		.s5 { fill: #ffd69f } 
		.s6 { fill: #fec220 } 
		.s7 { fill: #666666 } 
		.s8 { fill: #ffffff } 
		.s9 { fill: #4d4d4d } 
		.s10 { fill: #497185 } 
		.s11 { fill: #4c4c4c } 
		.s12 { fill: #808080 } 
		.s13 { fill: #ef8626 } 
		.s14 { fill: #db731d } 
	</style>
	<g id="_Artboards_">
	</g>
	<g id="Layer 1">
		<g id="&lt;Group&gt;">
			<path id="&lt;Path&gt;" class="s0" d="m1523.8 1369.8h-456.5v-794.1h456.5z"/>
			<g id="&lt;Group&gt;">
				<path id="&lt;Path&gt;" class="s1" d="m1209.8 719.4h-97.3v-97.4h97.3z"/>
				<path id="&lt;Path&gt;" class="s1" d="m1344.2 719.4h-97.3v-97.4h97.3z"/>
				<path id="&lt;Path&gt;" class="s1" d="m1478.7 719.4h-97.4v-97.4h97.4z"/>
			</g>
			<g id="&lt;Group&gt;">
				<path id="&lt;Path&gt;" class="s1" d="m1209.8 847.6h-97.3v-97.3h97.3z"/>
				<path id="&lt;Path&gt;" class="s1" d="m1344.2 847.6h-97.3v-97.3h97.3z"/>
				<path id="&lt;Path&gt;" class="s1" d="m1478.7 847.6h-97.4v-97.3h97.4z"/>
			</g>
			<g id="&lt;Group&gt;">
				<path id="&lt;Path&gt;" class="s1" d="m1209.8 975.8h-97.3v-97.3h97.3z"/>
				<path id="&lt;Path&gt;" class="s1" d="m1344.2 975.8h-97.3v-97.3h97.3z"/>
				<path id="&lt;Path&gt;" class="s1" d="m1478.7 975.8h-97.4v-97.3h97.4z"/>
			</g>
			<g id="&lt;Group&gt;">
				<path id="&lt;Path&gt;" class="s1" d="m1209.8 1104.1h-97.3v-97.4h97.3z"/>
				<path id="&lt;Path&gt;" class="s1" d="m1344.2 1104.1h-97.3v-97.4h97.3z"/>
				<path id="&lt;Path&gt;" class="s1" d="m1478.7 1104.1h-97.4v-97.4h97.4z"/>
			</g>
			<g id="&lt;Group&gt;">
				<path id="&lt;Path&gt;" class="s1" d="m1209.8 1232.3h-97.3v-97.3h97.3z"/>
				<path id="&lt;Path&gt;" class="s1" d="m1344.2 1232.3h-97.3v-97.3h97.3z"/>
				<path id="&lt;Path&gt;" class="s1" d="m1478.7 1232.3h-97.4v-97.3h97.4z"/>
			</g>
		</g>
		<g id="&lt;Group&gt;">
			<path id="&lt;Path&gt;" class="s2" d="m1223.7 1399.9h-410.2v-556.3h410.2z"/>
			<g id="&lt;Group&gt;">
				<path id="&lt;Path&gt;" class="s1" d="m1193.7 942.3h-350.2v-57.2h350.2z"/>
				<path id="&lt;Path&gt;" class="s1" d="m1193.7 1052.7h-350.2v-57.2h350.2z"/>
				<path id="&lt;Path&gt;" class="s1" d="m1193.7 1163.2h-350.2v-57.2h350.2z"/>
				<path id="&lt;Path&gt;" class="s1" d="m1193.7 1273.6h-350.2v-57.2h350.2z"/>
			</g>
		</g>
		<g id="&lt;Group&gt;">
			<path id="&lt;Path&gt;" class="s3" d="m1648.6 1395.7h-302.8v-155.3h302.8z"/>
			<path id="&lt;Path&gt;" class="s3" d="m1652.5 1234.2h-302.8v-155.2h302.8z"/>
			<path id="&lt;Path&gt;" class="s3" d="m1652.5 1072.8h-302.8v-155.3h302.8z"/>
			<path id="&lt;Path&gt;" class="s4" d="m1355.1 1412.7h-35.6v-539.2h35.6z"/>
			<path id="&lt;Path&gt;" class="s4" d="m1674.9 1412.7h-35.5v-539.2h35.5z"/>
			<path id="&lt;Path&gt;" class="s4" d="m1335.8 1409.6v-35.5h319v35.5z"/>
			<path id="&lt;Path&gt;" class="s4" d="m1335.8 1250.5v-35.6h319v35.6z"/>
			<path id="&lt;Path&gt;" class="s4" d="m1335.8 1091.3v-35.5h319v35.5z"/>
			<path id="&lt;Path&gt;" class="s4" d="m1455.9 1427.8h-35.5v-197.4h35.5z"/>
			<path id="&lt;Path&gt;" class="s4" d="m1563.3 1247h-35.6v-189.7h35.6z"/>
			<path id="&lt;Path&gt;" class="s4" d="m1335.8 932.2v-35.6h319v35.6z"/>
		</g>
		<g id="&lt;Group&gt;">
			<path id="&lt;Path&gt;" class="s5" d="m1456.4 1274.2l-57.2 99h145l-57.2-99c-6.8-11.8-23.8-11.8-30.6 0z"/>
			<path id="&lt;Path&gt;" class="s5" d="m1375.2 1306l-38.9 67.2h98.5l-38.9-67.2c-4.6-8-16.1-8-20.7 0z"/>
		</g>
		<g id="&lt;Group&gt;">
			<path id="&lt;Path&gt;" class="s5" d="m2352.8 1256.9l67.9 117.7h-172.2l67.9-117.7c8.1-14 28.3-14 36.4 0z"/>
			<path id="&lt;Path&gt;" class="s5" d="m2449.3 1294.7l46.2 79.9h-117l46.1-79.9c5.5-9.5 19.2-9.5 24.7 0z"/>
		</g>
		<g id="&lt;Group&gt;">
			<g id="&lt;Group&gt;">
				<path id="&lt;Path&gt;" class="s6" d="m427.5 1231.7l15.4-26.7h43.2v8.2h-30.8v18.5 72h-230.5v-72z"/>
				<path id="&lt;Path&gt;" class="s7" d="m457.3 1345.5c0 14.8 12 26.8 26.8 26.8 14.7 0 26.7-12 26.7-26.8 0-14.7-12-26.7-26.7-26.7-14.8 0-26.8 12-26.8 26.7z"/>
				<path id="&lt;Path&gt;" class="s8" d="m465.8 1345.5c0 10.1 8.2 18.3 18.3 18.3 10 0 18.2-8.2 18.2-18.3 0-10-8.2-18.2-18.2-18.2-10.1 0-18.3 8.2-18.3 18.2z"/>
				<path id="&lt;Path&gt;" class="s7" d="m475.6 1345.5c0 4.7 3.8 8.6 8.5 8.6 4.7 0 8.5-3.9 8.5-8.6 0-4.7-3.8-8.5-8.5-8.5-4.7 0-8.5 3.8-8.5 8.5z"/>
				<path id="&lt;Path&gt;" class="s8" d="m478 1345.5c0 3.4 2.7 6.1 6.1 6.1 3.3 0 6-2.7 6-6.1 0-3.3-2.7-6-6-6-3.4 0-6.1 2.7-6.1 6z"/>
				<path id="&lt;Path&gt;" class="s6" d="m461.4 1233.1v87.1h9.1c4-2.2 8.6-3.5 13.6-3.5 15.8 0 28.8 13 28.8 28.8 0 2.6-0.4 5.2-1.1 7.6h57.6c5.2 0 9.3-4.2 9.3-9.3v-58.6q0-1.1-0.1-2.1c-0.3-3.4-1.2-6.7-2.7-9.8l-22-45.7-0.3-0.5q-0.3-0.8-0.8-1.5c-2.5-3.9-6.8-6.2-11.5-6.2h-66.1c-7.6 0-13.8 6.1-13.8 13.7z"/>
				<path id="&lt;Path&gt;" class="s7" d="m301 1345.5c0 14.8 11.9 26.8 26.7 26.8 14.8 0 26.8-12 26.8-26.8 0-14.7-12-26.7-26.8-26.7-14.8 0-26.7 12-26.7 26.7z"/>
				<path id="&lt;Path&gt;" class="s8" d="m309.5 1345.5c0 10.1 8.1 18.3 18.2 18.3 10.1 0 18.2-8.2 18.2-18.3 0-10-8.1-18.2-18.2-18.2-10.1 0-18.2 8.2-18.2 18.2z"/>
				<path id="&lt;Path&gt;" class="s7" d="m319.2 1345.5c0 4.7 3.8 8.6 8.5 8.6 4.7 0 8.5-3.9 8.5-8.6 0-4.7-3.8-8.5-8.5-8.5-4.7 0-8.5 3.8-8.5 8.5z"/>
				<path id="&lt;Path&gt;" class="s8" d="m321.6 1345.5c0 3.4 2.8 6.1 6.1 6.1 3.4 0 6.1-2.7 6.1-6.1 0-3.3-2.7-6-6.1-6-3.3 0-6.1 2.7-6.1 6z"/>
				<path id="&lt;Path&gt;" class="s7" d="m459.4 1309.9v12.3h7.8c-7.2 5.3-11.9 13.8-11.9 23.3 0 2.7 0.3 5.2 1 7.6h-100.8c1.2-4.6 1.5-9.7 0-15-3.7-12.7-15.5-21.8-28.8-21.3-15.4 0.5-27.8 13.2-27.8 28.7 0 2.7 0.4 5.2 1 7.6h-10.3c1.3-4.6 1.5-9.7 0-15-3.6-12.7-15.5-21.8-28.7-21.3-15.4 0.5-27.8 13.2-27.8 28.7 0 2.7 0.4 5.2 1 7.6h-3.3c-3.3 0-6-2.7-6-6v-37.2z"/>
				<path id="&lt;Path&gt;" class="s7" d="m235.1 1345.5c0 14.8 12 26.8 26.8 26.8 14.7 0 26.7-12 26.7-26.8 0-14.7-12-26.7-26.7-26.7-14.8 0-26.8 12-26.8 26.7z"/>
				<path id="&lt;Path&gt;" class="s8" d="m243.6 1345.5c0 10.1 8.2 18.3 18.3 18.3 10 0 18.2-8.2 18.2-18.3 0-10-8.2-18.2-18.2-18.2-10.1 0-18.3 8.2-18.3 18.2z"/>
				<path id="&lt;Path&gt;" class="s7" d="m253.4 1345.5c0 4.7 3.8 8.6 8.5 8.6 4.7 0 8.5-3.9 8.5-8.6 0-4.7-3.8-8.5-8.5-8.5-4.7 0-8.5 3.8-8.5 8.5z"/>
				<path id="&lt;Path&gt;" class="s8" d="m255.8 1345.5c0 3.4 2.7 6.1 6.1 6.1 3.3 0 6.1-2.7 6.1-6.1 0-3.3-2.8-6-6.1-6-3.4 0-6.1 2.7-6.1 6z"/>
				<g id="&lt;Group&gt;">
					<path id="&lt;Path&gt;" class="s8" d="m403.8 1254.3v49.4h20.6v-49.4c0-5.6-4.6-10.3-10.3-10.3-5.7 0-10.3 4.7-10.3 10.3z"/>
					<path id="&lt;Path&gt;" class="s8" d="m391.5 1303.7v-49.4c0-5.6-4.6-10.3-10.3-10.3-5.7 0-10.3 4.7-10.3 10.3v49.4z"/>
					<path id="&lt;Path&gt;" class="s8" d="m338 1254.3v49.4h20.6v-49.4c0-5.6-4.6-10.3-10.3-10.3-5.7 0-10.3 4.7-10.3 10.3z"/>
					<path id="&lt;Path&gt;" class="s8" d="m305.1 1254.3v49.4h20.6v-49.4c0-5.6-4.7-10.3-10.3-10.3-5.7 0-10.3 4.7-10.3 10.3z"/>
					<path id="&lt;Path&gt;" class="s8" d="m272.2 1254.3v49.4h20.5v-49.4c0-5.6-4.6-10.3-10.3-10.3-5.6 0-10.2 4.7-10.2 10.3z"/>
					<path id="&lt;Path&gt;" class="s8" d="m239.2 1254.3v49.4h20.6v-49.4c0-5.6-4.6-10.3-10.3-10.3-5.6 0-10.3 4.7-10.3 10.3z"/>
				</g>
				<path id="&lt;Path&gt;" class="s7" d="m405.9 1303.7h16.4v-49.4c0-4.5-3.6-8.2-8.2-8.2-4.5 0-8.2 3.7-8.2 8.2z"/>
				<path id="&lt;Path&gt;" class="s7" d="m373 1303.7h16.4v-49.4c0-4.5-3.7-8.2-8.2-8.2-4.5 0-8.2 3.7-8.2 8.2z"/>
				<path id="&lt;Path&gt;" class="s7" d="m340.1 1303.7h16.4v-49.4c0-4.5-3.7-8.2-8.2-8.2-4.6 0-8.2 3.7-8.2 8.2z"/>
				<path id="&lt;Path&gt;" class="s7" d="m307.1 1303.7h16.5v-49.4c0-4.5-3.7-8.2-8.2-8.2-4.6 0-8.3 3.7-8.3 8.2z"/>
				<path id="&lt;Path&gt;" class="s7" d="m274.2 1303.7h16.5v-49.4c0-4.5-3.7-8.2-8.3-8.2-4.5 0-8.2 3.7-8.2 8.2z"/>
				<path id="&lt;Path&gt;" class="s7" d="m241.3 1303.7h16.5v-49.4c0-4.5-3.7-8.2-8.3-8.2-4.5 0-8.2 3.7-8.2 8.2z"/>
			</g>
			<g id="&lt;Group&gt;">
				<path id="&lt;Path&gt;" class="s9" d="m548.8 1283.1c1.8 0 3.6-0.9 4.6-2.4 1-1.6 1.1-3.5 0.4-5.2l-19.6-44.6c-0.9-2-2.9-3.3-5-3.3h-45.8c-3.1 0-5.5 2.4-5.5 5.5v44.6c0 3 2.4 5.4 5.5 5.4z"/>
				<path id="&lt;Path&gt;" class="s10" d="m532.3 1231.7l19.6 44.6c1 2.3-0.7 4.8-3.1 4.8h-65.4c-1.9 0-3.5-1.5-3.5-3.4v-44.6c0-1.9 1.6-3.5 3.5-3.5h45.8c1.3 0 2.5 0.8 3.1 2.1z"/>
			</g>
			<path id="&lt;Path&gt;" class="s9" d="m548.4 1233.9l21.2 47.8c1 2.1 3.1 3.5 5.5 3.5h3.6q0-1.1-0.1-2.1c-0.3-3.4-1.2-6.7-2.7-9.8l-22-45.7-0.3-0.5q-0.3-0.8-0.8-1.5c-1.6 0.3-3.1 1.2-4 2.6-1 1.8-1.2 3.9-0.4 5.7z"/>
			<path id="&lt;Path&gt;" class="s10" d="m550.3 1233.1l21.2 47.7c0.6 1.4 2 2.3 3.6 2.3h3.5c-0.3-3.4-1.2-6.7-2.7-9.8l-22-45.7c-2.9 0-4.8 2.9-3.6 5.5z"/>
			<path id="&lt;Path&gt;" class="s7" d="m570.3 1353.1h3.6c4.9 0 8.9-4 8.9-8.9v-11.8c0-2.2-1.8-4-4-4h-8.5c-2.2 0-3.9 1.8-3.9 4v16.7c0 2.2 1.7 4 3.9 4z"/>
			<path id="&lt;Path&gt;" class="s7" d="m578.1 1326.3h1.7c1.7 0 3-1.3 3-3v-4.2c0-1.7-1.3-3-3-3h-1.7c-0.8 0-1.5 0.6-1.5 1.4v7.4c0 0.8 0.7 1.4 1.5 1.4z"/>
			<path id="&lt;Path&gt;" class="s7" d="m482.6 1295.5h13.2c1.5 0 2.7-1.2 2.7-2.7v-0.8c0-1.5-1.2-2.7-2.7-2.7h-13.2c-1.5 0-2.7 1.2-2.7 2.7v0.8c0 1.5 1.2 2.7 2.7 2.7z"/>
			<path id="&lt;Path&gt;" class="s8" d="m512.9 1329.4h47.2c2.9 0 5.2-2.3 5.2-5.2v-37q0-2.2-0.8-4.3l-21.9-53.6c-0.2-0.6-0.8-0.8-1.3-0.6-0.5 0.2-0.8 0.8-0.6 1.3l21.9 53.7q0.7 1.7 0.7 3.5v37c0 1.7-1.5 3.2-3.2 3.2h-47.2c-0.6 0-1.1 0.4-1.1 1 0 0.6 0.5 1 1.1 1z"/>
		</g>
		<g id="&lt;Group&gt;">
			<path id="&lt;Path&gt;" class="s6" d="m2223.5 1320.6l-14-60.3c-1.2-5.3-6-9.1-11.5-9.1h-61.8l-12.2-39.7c-1.2-3.9-4.9-6.7-9.1-6.7h-58.3c-5.2 0-9.5 4.3-9.5 9.5v106.3z"/>
			<g id="&lt;Group&gt;">
				<path id="&lt;Path&gt;" class="s8" d="m2169.5 1264.3h20.6c1.2 0 2.2-0.9 2.2-2.1 0-1.2-1-2.1-2.2-2.1h-20.6c-1.2 0-2.2 0.9-2.2 2.1 0 1.2 1 2.1 2.2 2.1z"/>
				<path id="&lt;Path&gt;" class="s8" d="m2169.5 1270h20.6c1.2 0 2.2-0.9 2.2-2.1 0-1.2-1-2.1-2.2-2.1h-20.6c-1.2 0-2.2 0.9-2.2 2.1 0 1.2 1 2.1 2.2 2.1z"/>
				<path id="&lt;Path&gt;" class="s8" d="m2169.5 1275.7h20.6c1.2 0 2.2-0.9 2.2-2.1 0-1.2-1-2.1-2.2-2.1h-20.6c-1.2 0-2.2 0.9-2.2 2.1 0 1.2 1 2.1 2.2 2.1z"/>
				<path id="&lt;Path&gt;" class="s8" d="m2169.5 1281.4h20.6c1.2 0 2.2-0.9 2.2-2.1 0-1.2-1-2.1-2.2-2.1h-20.6c-1.2 0-2.2 0.9-2.2 2.1 0 1.2 1 2.1 2.2 2.1z"/>
			</g>
			<path id="&lt;Path&gt;" class="s6" d="m2177.1 1257.4h5.9v-26.7c0-9.6 2.6-12.6 3.6-13-0.2 0.1-0.3 0.1-0.3 0.1l-0.8-5.8c-1.4 0.2-8.4 2-8.4 18.7z"/>
			<path id="&lt;Path&gt;" class="s8" d="m2136.7 1304.6l-22.6-85.3c-0.9-3.3-3.8-5.6-7.2-5.6h-38.1c-4.1 0-7.4 3.4-7.4 7.5v83.4z"/>
			<path id="&lt;Path&gt;" class="s10" d="m2112.3 1219.7l22.1 83.1h-71.3v-81.6c0-3.1 2.6-5.7 5.7-5.7h38.1c2.6 0 4.8 1.8 5.4 4.2z"/>
			<g id="&lt;Group&gt;">
				<path id="&lt;Path&gt;" class="s7" d="m2052.5 1322.4h165.6c10.4 0 19.2 6.3 23 15.3l-74.4-6.4q-0.5 0-1 0c-5.9 0-11 4.6-11.5 10.6-0.3 3.1 0.7 6.1 2.7 8.4 2 2.4 4.8 3.8 7.9 4.1l74.3 6.4c-4.4 6.9-12.2 11.5-21 11.5h-165.6c-13.8 0-25-11.2-25-25 0-13.7 11.2-24.9 25-24.9z"/>
				<g id="&lt;Group&gt;">
					<g id="&lt;Group&gt;">
						<path id="&lt;Path&gt;" class="s8" d="m2052.5 1365.2c9.8 0 17.8-8 17.8-17.9 0-9.8-8-17.8-17.8-17.8-9.9 0-17.9 8-17.9 17.8 0 9.9 8 17.9 17.9 17.9z"/>
						<path id="&lt;Path&gt;" class="s7" d="m2036.4 1347.3c0 8.9 7.2 16.1 16.1 16.1 8.8 0 16-7.2 16-16.1 0-8.8-7.2-16-16-16-8.9 0-16.1 7.2-16.1 16z"/>
					</g>
					<g id="&lt;Group&gt;">
						<path id="&lt;Path&gt;" class="s8" d="m2218.1 1365.2c9.8 0 17.8-8 17.8-17.9 0-9.8-8-17.8-17.8-17.8-9.8 0-17.8 8-17.8 17.8 0 9.9 8 17.9 17.8 17.9z"/>
						<path id="&lt;Path&gt;" class="s7" d="m2202.1 1347.3c0 8.9 7.2 16.1 16 16.1 8.9 0 16-7.2 16-16.1 0-8.8-7.1-16-16-16-8.8 0-16 7.2-16 16z"/>
					</g>
				</g>
				<path id="&lt;Path&gt;" class="s8" d="m2159.3 1356.8c4.9 0 8.9-3.9 8.9-8.9 0-4.9-4-8.9-8.9-8.9h-92.6c-4.9 0-8.9 4-8.9 8.9 0 5 4 8.9 8.9 8.9z"/>
				<path id="&lt;Path&gt;" class="s7" d="m2274.9 1352.2c0.3-3.1-0.7-6.1-2.7-8.4-2-2.4-4.8-3.8-7.9-4.1l-1.7-0.1v-35h19.6l5.4 49.9 32 17.8h-48l-8-9.5c5.9-0.1 10.8-4.7 11.3-10.6z"/>
				<path id="&lt;Path&gt;" class="s7" d="m2066.7 1340.8h87.7q-0.1 0.5-0.2 1.1c-0.3 3.1 0.7 6.1 2.7 8.4 1.6 1.9 3.7 3.2 6 3.8-1.1 0.6-2.3 1-3.6 1h-92.6c-3.9 0-7.1-3.2-7.1-7.2 0-3.9 3.2-7.1 7.1-7.1z"/>
				<path id="&lt;Path&gt;" class="s7" d="m2164.9 1352.6l97.6 8.4c5.4 0.5 10.2-3.5 10.6-8.9 0.5-5.4-3.5-10.2-8.9-10.6l-97.6-8.4c-5.4-0.5-10.2 3.5-10.6 8.9-0.5 5.4 3.5 10.2 8.9 10.6z"/>
			</g>
		</g>
		<g id="&lt;Group&gt;">
			<path id="&lt;Path&gt;" class="s6" d="m1782.8 1170l-55.1 15.2-4.3 1.2-55.1 15.1-25.4 36.6 9.1 33.1 40.5 18.5 55.1-15.2 4.3-1.2 55.1-15.1 25.4-36.6h0.1l-9.1-33.1z"/>
			<path id="&lt;Path&gt;" class="s7" d="m1628.2 1345.5c0 14.8-11.9 26.8-26.7 26.8-14.8 0-26.8-12-26.8-26.8 0-14.7 12-26.7 26.8-26.7 14.8 0 26.7 12 26.7 26.7z"/>
			<path id="&lt;Path&gt;" class="s8" d="m1619.7 1345.5c0 10.1-8.1 18.3-18.2 18.3-10.1 0-18.2-8.2-18.2-18.3 0-10 8.1-18.2 18.2-18.2 10.1 0 18.2 8.2 18.2 18.2z"/>
			<path id="&lt;Path&gt;" class="s7" d="m1610 1345.5c0 4.7-3.8 8.6-8.5 8.6-4.7 0-8.5-3.9-8.5-8.6 0-4.7 3.8-8.5 8.5-8.5 4.7 0 8.5 3.8 8.5 8.5z"/>
			<path id="&lt;Path&gt;" class="s8" d="m1607.6 1345.5c0 3.4-2.8 6.1-6.1 6.1-3.4 0-6.1-2.7-6.1-6.1 0-3.3 2.7-6 6.1-6 3.3 0 6.1 2.7 6.1 6z"/>
			<path id="&lt;Path&gt;" class="s6" d="m1624.1 1233.1v87.1h-9c-4.1-2.2-8.7-3.5-13.6-3.5-15.9 0-28.8 13-28.8 28.8 0 2.6 0.4 5.2 1 7.6h-57.6c-5.1 0-9.2-4.2-9.2-9.3v-58.6q0-1.1 0.1-2.1c0.2-3.4 1.1-6.7 2.6-9.8l22.1-45.7 0.2-0.5q0.4-0.8 0.9-1.5c2.4-3.9 6.8-6.2 11.5-6.2h66.1c7.6 0 13.7 6.1 13.7 13.7z"/>
			<path id="&lt;Path&gt;" class="s7" d="m1784.6 1345.5c0 14.8-12 26.8-26.8 26.8-14.7 0-26.7-12-26.7-26.8 0-14.7 12-26.7 26.7-26.7 14.8 0 26.8 12 26.8 26.7z"/>
			<path id="&lt;Path&gt;" class="s8" d="m1776.1 1345.5c0 10.1-8.2 18.3-18.3 18.3-10 0-18.2-8.2-18.2-18.3 0-10 8.2-18.2 18.2-18.2 10.1 0 18.3 8.2 18.3 18.2z"/>
			<path id="&lt;Path&gt;" class="s7" d="m1766.4 1345.5c0 4.7-3.9 8.6-8.6 8.6-4.7 0-8.5-3.9-8.5-8.6 0-4.7 3.8-8.5 8.5-8.5 4.7 0 8.6 3.8 8.6 8.5z"/>
			<path id="&lt;Path&gt;" class="s8" d="m1763.9 1345.5c0 3.4-2.7 6.1-6.1 6.1-3.3 0-6-2.7-6-6.1 0-3.3 2.7-6 6-6 3.4 0 6.1 2.7 6.1 6z"/>
			<path id="&lt;Path&gt;" class="s7" d="m1850.4 1345.5c0 14.8-12 26.8-26.7 26.8-14.8 0-26.8-12-26.8-26.8 0-14.7 12-26.7 26.8-26.7 14.7 0 26.7 12 26.7 26.7z"/>
			<path id="&lt;Path&gt;" class="s8" d="m1841.9 1345.5c0 10.1-8.2 18.3-18.2 18.3-10.1 0-18.3-8.2-18.3-18.3 0-10 8.2-18.2 18.3-18.2 10 0 18.2 8.2 18.2 18.2z"/>
			<path id="&lt;Path&gt;" class="s7" d="m1832.2 1345.5c0 4.7-3.8 8.6-8.5 8.6-4.7 0-8.5-3.9-8.5-8.6 0-4.7 3.8-8.5 8.5-8.5 4.7 0 8.5 3.8 8.5 8.5z"/>
			<path id="&lt;Path&gt;" class="s8" d="m1829.8 1345.5c0 3.4-2.8 6.1-6.1 6.1-3.4 0-6.1-2.7-6.1-6.1 0-3.3 2.7-6 6.1-6 3.3 0 6.1 2.7 6.1 6z"/>
			<g id="&lt;Group&gt;">
				<path id="&lt;Path&gt;" class="s9" d="m1536.8 1283.1c-1.9 0-3.6-0.9-4.6-2.4-1-1.6-1.2-3.5-0.4-5.2l19.6-44.6c0.9-2 2.8-3.3 5-3.3h45.8c3 0 5.5 2.4 5.5 5.5v44.6c0 3-2.5 5.4-5.5 5.4z"/>
				<path id="&lt;Path&gt;" class="s10" d="m1553.3 1231.7l-19.7 44.6c-0.9 2.3 0.7 4.8 3.2 4.8h65.4c1.9 0 3.4-1.5 3.4-3.4v-44.6c0-1.9-1.5-3.5-3.4-3.5h-45.8c-1.4 0-2.6 0.8-3.1 2.1z"/>
			</g>
			<path id="&lt;Path&gt;" class="s9" d="m1537.1 1233.9l-21.2 47.8c-0.9 2.1-3.1 3.5-5.4 3.5h-3.6q0-1.1 0.1-2.1c0.2-3.4 1.1-6.7 2.6-9.8l22.1-45.7 0.2-0.5q0.4-0.8 0.9-1.5c1.6 0.3 3 1.2 3.9 2.6 1.1 1.8 1.3 3.9 0.4 5.7z"/>
			<path id="&lt;Path&gt;" class="s10" d="m1535.3 1233.1l-21.2 47.7c-0.7 1.4-2.1 2.3-3.6 2.3h-3.5c0.2-3.4 1.1-6.7 2.6-9.8l22.1-45.7c2.8 0 4.7 2.9 3.6 5.5z"/>
			<path id="&lt;Path&gt;" class="s7" d="m1515.2 1353.1h-3.6c-4.9 0-8.9-4-8.9-8.9v-11.8c0-2.2 1.8-4 4-4h8.5c2.2 0 4 1.8 4 4v16.7c0 2.2-1.8 4-4 4z"/>
			<path id="&lt;Path&gt;" class="s7" d="m1507.5 1326.3h-1.8c-1.6 0-3-1.3-3-3v-4.2c0-1.7 1.4-3 3-3h1.8c0.8 0 1.4 0.6 1.4 1.4v7.4c0 0.8-0.6 1.4-1.4 1.4z"/>
			<path id="&lt;Path&gt;" class="s7" d="m1602.9 1295.5h-13.2c-1.4 0-2.6-1.2-2.6-2.7v-0.8c0-1.5 1.2-2.7 2.6-2.7h13.2c1.5 0 2.7 1.2 2.7 2.7v0.8c0 1.5-1.2 2.7-2.7 2.7z"/>
			<path id="&lt;Path&gt;" class="s8" d="m1572.7 1329.4h-47.2c-2.9 0-5.3-2.3-5.3-5.2v-37q0-2.2 0.9-4.3l21.8-53.6c0.3-0.6 0.9-0.8 1.4-0.6 0.5 0.2 0.8 0.8 0.5 1.3l-21.8 53.7q-0.7 1.7-0.7 3.5v37c0 1.7 1.4 3.2 3.2 3.2h47.2c0.6 0 1 0.4 1 1 0 0.6-0.4 1-1 1z"/>
			<path id="&lt;Path&gt;" class="s7" d="m1652.9 1309.9l-18.5-72h-8.2v72 12.3h-7.8c7.2 5.3 11.9 13.8 11.9 23.3 0 2.7-0.4 5.2-1 7.6h100.8c-1.3-4.6-1.5-9.7 0-15 3.6-12.7 15.5-21.8 28.7-21.3 15.5 0.5 27.8 13.2 27.8 28.7 0 2.7-0.3 5.2-1 7.6h10.3c-1.2-4.6-1.5-9.7 0-15 3.6-12.7 15.5-21.8 28.8-21.3 15.4 0.5 27.8 13.2 27.8 28.7 0 2.7-0.4 5.2-1.1 7.6h3.3c3.3 0 6-2.7 6-6v-37.2z"/>
			<path id="&lt;Path&gt;" class="s7" d="m1880.5 1261.9q-5.8 0.6-10.3 1.6l-16.8-59.8c-0.7-2.6-3.4-4-5.9-3.3l-11 3c-2.5 0.8-4 3.4-3.3 6l17.3 61.5 0.6 2.1c2.9-1.5 6.2-2.8 9.8-3.8q2.3-0.7 4.5-1.1 2.5-0.7 5.7-1.3c2.9-0.5 6.1-1 9.8-1.4 0.9-0.1 1.6-1 1.5-2-0.1-0.9-1-1.6-1.9-1.5z"/>
			<path id="&lt;Path&gt;" class="s6" d="m1847.1 1275.6l-1.3-4.7-8.8-31.9-20.6 29.7-126.6 34.8-32.8-15 5.3 19.3h67.7z"/>
			<path id="&lt;Path&gt;" class="s6" d="m1855.9 1307.8l-8.5-31.1-113.3 31.1z"/>
		</g>
		<g id="&lt;Group&gt;">
			<g id="&lt;Group&gt;">
				<path id="&lt;Path&gt;" class="s7" d="m1028.5 1325.2l2.9-15.8c2.2-12.5 14.1-20.8 26.6-18.5l16.7 3-11 61-16.7-3.1c-12.4-2.2-20.7-14.1-18.5-26.6z"/>
				<path id="&lt;Path&gt;" class="s7" d="m1082.9 1355.3l-7.6-10 8.9-49.7-6.8-1.2-10.9 60.9 6.7 1.3 8 1.4c1.5 0.3 2.6-1.4 1.7-2.7z"/>
			</g>
			<path id="&lt;Path&gt;" class="s7" d="m1143.7 1164.4l-49.9-8.8q-0.5-0.1-0.9 0c0.1 1 0.2 2 0 3-0.2 1-0.6 1.9-1 2.7q0.3 0.3 0.8 0.4l50 8.8c1.3 0.2 2.5-0.6 2.8-1.9l0.2-1.4c0.2-1.3-0.6-2.5-2-2.8z"/>
			<path id="&lt;Path&gt;" class="s7" d="m1092.3 1163.7q-0.8-0.2-1.5-0.6l-0.2-0.2c-1.9 1.9-4.5 2.8-7.2 2.3-4.5-0.8-7.5-5-6.7-9.5 0.8-4.5 5.1-7.5 9.5-6.7 2.8 0.5 4.9 2.3 6 4.6h0.2q0.9-0.2 1.7 0l7.8 1.3 1.8-10.1-34.4-6.1-22 123.7 2.8 23.3 27.7 4.9 22.3-125.5z"/>
			<path id="&lt;Path&gt;" class="s7" d="m1090.9 1158.2c-0.6 3.4-3.8 5.6-7.2 5-3.3-0.6-5.6-3.8-5-7.1 0.6-3.4 3.8-5.6 7.2-5 3.3 0.5 5.6 3.7 5 7.1z"/>
			<path id="&lt;Path&gt;" class="s7" d="m1195.4 1242.4l-5.7-71q-0.1-0.5-0.3-0.9c-0.8 0.5-1.8 0.8-2.8 0.9-1 0.1-2 0-2.9-0.2q-0.2 0.4-0.1 0.9l5.7 71c0.1 1.3 1.3 2.2 2.6 2.1l1.4-0.2c1.3-0.1 2.3-1.3 2.1-2.6z"/>
			<path id="&lt;Path&gt;" class="s7" d="m1251.5 1210.5l-56.2-65.7c-11.3-13.3-30.4-16.7-45.7-8.2l-36.4 20.3 30.9 5.5c2.4 0.4 4 2.7 3.6 5.2l-0.2 1.3c-0.4 2.4-2.8 4.1-5.2 3.6l-40.1-7.1-6.6 36.7 47-26.2c12.7-7.1 28.1-5.9 39.4 2.4l-0.5-6q-0.1-0.8 0.2-1.7v-0.2c-2.2-1.2-3.9-3.5-4.2-6.3-0.5-4.5 2.7-8.5 7.2-9.1 4.6-0.5 8.6 2.8 9.2 7.3 0.3 2.7-0.9 5.3-2.8 7l0.1 0.2q0.5 0.8 0.6 1.7l1.5 18.7 17.6 20.6 8.8 10.3 1.7 2.1 23.5 27.5 7.6-6.5 2.1-1.8 12.3-10.5v-2.9z"/>
			<path id="&lt;Path&gt;" class="s7" d="m1186.4 1169.3c-3.4 0.4-6.5-2-6.9-5.4-0.3-3.4 2.1-6.4 5.5-6.8 3.4-0.4 6.4 2 6.8 5.4 0.4 3.4-2 6.5-5.4 6.8z"/>
			<g id="&lt;Group&gt;">
				<path id="&lt;Path&gt;" class="s6" d="m1336.9 1269.4v28.3c0 7.5-6.1 13.6-13.7 13.6h-120.8c-7.5 0-13.6-6.1-13.6-13.6v-73.5c0-7.6 6.1-13.7 13.6-13.7h50.9c7.5 0 13.6 6.1 13.6 13.7v31.6h56.3c7.6 0 13.7 6.1 13.7 13.6z"/>
				<g id="&lt;Group&gt;">
					<path id="&lt;Path&gt;" class="s8" d="m1320.4 1266.5h-20.7c-1.1 0-2.1-0.9-2.1-2.1 0-1.2 1-2.1 2.1-2.1h20.7c1.2 0 2.1 0.9 2.1 2.1 0 1.2-0.9 2.1-2.1 2.1z"/>
					<path id="&lt;Path&gt;" class="s8" d="m1320.4 1272.2h-20.7c-1.1 0-2.1-0.9-2.1-2.1 0-1.2 1-2.1 2.1-2.1h20.7c1.2 0 2.1 0.9 2.1 2.1 0 1.2-0.9 2.1-2.1 2.1z"/>
					<path id="&lt;Path&gt;" class="s8" d="m1320.4 1277.9h-20.7c-1.1 0-2.1-0.9-2.1-2.1 0-1.2 1-2.1 2.1-2.1h20.7c1.2 0 2.1 0.9 2.1 2.1 0 1.2-0.9 2.1-2.1 2.1z"/>
					<path id="&lt;Path&gt;" class="s8" d="m1320.4 1283.6h-20.7c-1.1 0-2.1-0.9-2.1-2.1 0-1.2 1-2.1 2.1-2.1h20.7c1.2 0 2.1 0.9 2.1 2.1 0 1.2-0.9 2.1-2.1 2.1z"/>
				</g>
				<path id="&lt;Path&gt;" class="s6" d="m1303.3 1259.6h5.9v-26.7c0-9.6 2.6-12.6 3.5-13-0.1 0.1-0.2 0.1-0.2 0.1l-0.8-5.8c-1.4 0.2-8.4 2-8.4 18.7z"/>
				<path id="&lt;Path&gt;" class="s9" d="m1247.3 1296.9h-40.9c-4.1 0-7.4-3.2-7.4-7.3v-61.5c0-4 3.3-7.3 7.4-7.3h40.9c4 0 7.3 3.3 7.3 7.3v61.5c0 4.1-3.3 7.3-7.3 7.3z"/>
				<path id="&lt;Path&gt;" class="s10" d="m1206.4 1294.9c-2.9 0-5.3-2.4-5.3-5.3v-61.5c0-2.9 2.4-5.2 5.3-5.2h40.9c2.9 0 5.2 2.3 5.2 5.2v61.5c0 2.9-2.3 5.3-5.2 5.3z"/>
			</g>
			<path id="&lt;Path&gt;" class="s7" d="m1289.3 1325.7h-53c-4.1 0-7.4-3.3-7.4-7.4v-1.6c0-1.8 1.5-3.3 3.3-3.3h61.2c1.9 0 3.4 1.5 3.4 3.3v1.6c0 4.1-3.4 7.4-7.5 7.4z"/>
			<g id="&lt;Group&gt;">
				<g id="&lt;Group&gt;">
					<path id="&lt;Path&gt;" class="s7" d="m1329.7 1372.3h-135.8c-12.5 0-22.6-10.1-22.6-22.6 0-12.5 10.1-22.7 22.6-22.7h135.8c12.5 0 22.6 10.2 22.6 22.7 0 12.5-10.1 22.6-22.6 22.6z"/>
					<g id="&lt;Group&gt;">
						<g id="&lt;Group&gt;">
							<path id="&lt;Path&gt;" class="s8" d="m1209.3 1349.7c0 9-7.3 16.4-16.4 16.4-9.1 0-16.5-7.4-16.5-16.4 0-9.1 7.4-16.5 16.5-16.5 9.1 0 16.4 7.4 16.4 16.5z"/>
							<path id="&lt;Path&gt;" class="s7" d="m1205.7 1349.7c0 7-5.8 12.8-12.8 12.8-7.1 0-12.8-5.8-12.8-12.8 0-7.1 5.7-12.8 12.8-12.8 7 0 12.8 5.7 12.8 12.8z"/>
						</g>
						<g id="&lt;Group&gt;">
							<path id="&lt;Path&gt;" class="s8" d="m1347.2 1349.7c0 9-7.4 16.4-16.5 16.4-9.1 0-16.4-7.4-16.4-16.4 0-9.1 7.3-16.5 16.4-16.5 9.1 0 16.5 7.4 16.5 16.5z"/>
							<path id="&lt;Path&gt;" class="s7" d="m1343.5 1349.7c0 7-5.7 12.8-12.8 12.8-7.1 0-12.8-5.8-12.8-12.8 0-7.1 5.7-12.8 12.8-12.8 7.1 0 12.8 5.7 12.8 12.8z"/>
						</g>
					</g>
				</g>
				<g id="&lt;Group&gt;">
					<path id="&lt;Path&gt;" class="s8" d="m1192.8 1356.9c-4 0-7.2-3.3-7.2-7.2 0-4 3.2-7.2 7.2-7.2h138c4 0 7.2 3.2 7.2 7.2 0 3.9-3.2 7.2-7.2 7.2z"/>
					<path id="&lt;Path&gt;" class="s7" d="m1330.8 1355.3h-138c-3.1 0-5.6-2.6-5.6-5.6 0-3.1 2.5-5.6 5.6-5.6h138c3.1 0 5.6 2.5 5.6 5.6 0 3-2.5 5.6-5.6 5.6z"/>
				</g>
			</g>
		</g>
		<g id="&lt;Group&gt;">
			<g id="&lt;Group&gt;">
				<g id="&lt;Group&gt;">
					<path id="&lt;Path&gt;" class="s11" d="m331.8 675.4c0 0 0.6-0.6 0.6-1.6h-5c0-1.7 0-1.8 23.1-17.9 13.2-9.3 32.7-22.8 57.9-40.2 42.3-29.3 101.4-69.9 175.6-120.7 126.3-86.5 254.2-173.8 255.5-174.7l1.3-0.9 455.9 286-2.6 4.2-453.1-284.3c-173.8 118.5-501.9 343-509.2 350.1z"/>
					<path id="&lt;Path&gt;" class="s11" d="m1514 609.7l-674-279.4 1.8-4.6 674.1 279.5z"/>
				</g>
				<g id="&lt;Group&gt;">
					<path id="&lt;Path&gt;" class="s11" d="m887.2 765.4l-9 9-82.9-82.8 9-9z"/>
					<path id="&lt;Path&gt;" class="s11" d="m878.2 682.6l9 9-82.9 82.8-9-9z"/>
					<g id="&lt;Group&gt;">
						<path id="&lt;Path&gt;" class="s11" d="m877.2 679.1v12.7h-71.9v-12.7z"/>
						<path id="&lt;Path&gt;" class="s11" d="m877.2 765.2v12.7h-71.9v-12.7z"/>
					</g>
				</g>
				<g id="&lt;Group&gt;">
					<path id="&lt;Path&gt;" class="s11" d="m887.2 851.5l-9 9-82.9-82.8 9-9z"/>
					<path id="&lt;Path&gt;" class="s11" d="m878.2 768.7l9 9-82.9 82.8-9-9z"/>
					<g id="&lt;Group&gt;">
						<path id="&lt;Path&gt;" class="s11" d="m877.2 765.2v12.7h-71.9v-12.7z"/>
						<path id="&lt;Path&gt;" class="s11" d="m877.2 851.3v12.7h-71.9v-12.7z"/>
					</g>
				</g>
				<g id="&lt;Group&gt;">
					<path id="&lt;Path&gt;" class="s11" d="m887.2 937.6l-9 9-82.9-82.8 9-9z"/>
					<path id="&lt;Path&gt;" class="s11" d="m878.2 854.8l9 9-82.9 82.8-9-9z"/>
					<g id="&lt;Group&gt;">
						<path id="&lt;Path&gt;" class="s11" d="m877.2 851.3v12.7h-71.9v-12.7z"/>
						<path id="&lt;Path&gt;" class="s11" d="m877.2 937.4v12.7h-71.9v-12.7z"/>
					</g>
				</g>
				<g id="&lt;Group&gt;">
					<path id="&lt;Path&gt;" class="s11" d="m887.2 1023.8l-9 8.9-82.9-82.8 9-9z"/>
					<path id="&lt;Path&gt;" class="s11" d="m878.2 940.9l9 9-82.9 82.8-9-8.9z"/>
					<g id="&lt;Group&gt;">
						<path id="&lt;Path&gt;" class="s11" d="m877.2 937.4v12.7h-71.9v-12.7z"/>
						<path id="&lt;Path&gt;" class="s11" d="m877.2 1023.5v12.7h-71.9v-12.7z"/>
					</g>
				</g>
				<g id="&lt;Group&gt;">
					<path id="&lt;Path&gt;" class="s11" d="m887.2 1109.9l-9 8.9-82.9-82.8 9-9z"/>
					<path id="&lt;Path&gt;" class="s11" d="m878.2 1027l9 9-82.9 82.8-9-8.9z"/>
					<g id="&lt;Group&gt;">
						<path id="&lt;Path&gt;" class="s11" d="m877.2 1023.5v12.7h-71.9v-12.7z"/>
						<path id="&lt;Path&gt;" class="s11" d="m877.2 1109.6v12.7h-71.9v-12.7z"/>
					</g>
				</g>
				<g id="&lt;Group&gt;">
					<path id="&lt;Path&gt;" class="s11" d="m887.2 1196l-9 8.9-82.9-82.8 9-9z"/>
					<path id="&lt;Path&gt;" class="s11" d="m878.2 1113.1l9 9-82.9 82.8-9-8.9z"/>
					<g id="&lt;Group&gt;">
						<path id="&lt;Path&gt;" class="s11" d="m877.2 1109.6v12.7h-71.9v-12.7z"/>
						<path id="&lt;Path&gt;" class="s11" d="m877.2 1195.7v12.7h-71.9v-12.7z"/>
					</g>
				</g>
				<g id="&lt;Group&gt;">
					<path id="&lt;Path&gt;" class="s11" d="m887.2 1282.1l-9 8.9-82.9-82.8 9-9z"/>
					<path id="&lt;Path&gt;" class="s11" d="m878.2 1199.2l9 9-82.9 82.8-9-8.9z"/>
					<g id="&lt;Group&gt;">
						<path id="&lt;Path&gt;" class="s11" d="m877.2 1195.7v12.7h-71.9v-12.7z"/>
						<path id="&lt;Path&gt;" class="s11" d="m877.2 1281.8v12.7h-71.9v-12.7z"/>
					</g>
				</g>
				<path id="&lt;Path&gt;" class="s7" d="m808.1 1331.2h-12.7v-652.1h12.7z"/>
				<g id="&lt;Group&gt;">
					<path id="&lt;Path&gt;" class="s7" d="m847.8 377.3l-6.4 49.3-33.4 257-12.6-1.6 39.6-304.7 6.4-49.2z"/>
					<path id="&lt;Path&gt;" class="s7" d="m887.1 679.9l-12.6 1.6-33.1-254.9-6.4-49.3 6.4-49.2 6.4 49.2z"/>
				</g>
				<path id="&lt;Path&gt;" class="s7" d="m887.1 1331.2h-12.7v-652.1h12.7z"/>
				<g id="&lt;Group&gt;">
					<g id="&lt;Group&gt;">
						<path id="&lt;Path&gt;" class="s11" d="m1083.2 681.1l-8.9 8.9-63.9-63.8 9-9z"/>
						<path id="&lt;Path&gt;" class="s7" d="m1028.4 626.2l-9 9-54.8 54.8-9-8.9 54.8-54.9 9-9z"/>
					</g>
					<g id="&lt;Group&gt;">
						<path id="&lt;Path&gt;" class="s11" d="m1152.6 626.2l-9 9-54.8 54.8-9-8.9 54.8-54.9 9-9z"/>
						<path id="&lt;Path&gt;" class="s11" d="m1207.4 681.1l-8.9 8.9-63.9-63.8 9-9z"/>
					</g>
					<g id="&lt;Group&gt;">
						<path id="&lt;Path&gt;" class="s11" d="m1276.8 626.2l-9 9-54.8 54.8-9-8.9 54.9-54.9 8.9-9z"/>
						<path id="&lt;Path&gt;" class="s11" d="m1331.7 681.1l-9 8.9-63.8-63.8 8.9-9z"/>
					</g>
					<g id="&lt;Group&gt;">
						<path id="&lt;Path&gt;" class="s11" d="m1401 626.2l-8.9 9-54.9 54.8-9-8.9 54.9-54.9 9-9z"/>
						<path id="&lt;Path&gt;" class="s11" d="m1455.9 681.1l-9 8.9-63.8-63.8 9-9z"/>
					</g>
					<g id="&lt;Group&gt;">
						<path id="&lt;Path&gt;" class="s11" d="m1525.3 626.2l-9 9-54.9 54.8-8.9-8.9 54.8-54.9 9-9z"/>
						<path id="&lt;Path&gt;" class="s7" d="m1580.1 681.1l-9 8.9-63.8-63.8 9-9z"/>
					</g>
					<path id="&lt;Path&gt;" class="s7" d="m868.1 692.2v-12.7h712.1v12.7z"/>
					<path id="&lt;Path&gt;" class="s7" d="m1019.1 629.3v-12.7h497.6v12.7z"/>
				</g>
				<g id="&lt;Group&gt;">
					<g id="&lt;Group&gt;">
						<path id="&lt;Path&gt;" class="s11" d="m590.1 681.1l9 8.9 63.8-63.8-9-9z"/>
						<path id="&lt;Path&gt;" class="s7" d="m644.9 626.2l9 9 54.9 54.8 8.9-8.9-54.8-54.9-9-9z"/>
					</g>
					<g id="&lt;Group&gt;">
						<path id="&lt;Path&gt;" class="s11" d="m520.7 626.2l9 9 54.8 54.8 9-8.9-54.8-54.9-9-9z"/>
						<path id="&lt;Path&gt;" class="s11" d="m465.9 681.1l9 8.9 63.8-63.8-9-9z"/>
					</g>
					<g id="&lt;Group&gt;">
						<path id="&lt;Path&gt;" class="s11" d="m396.5 626.2l9 9 54.8 54.8 9-8.9-54.8-54.9-9-9z"/>
						<path id="&lt;Path&gt;" class="s7" d="m341.7 681.1l8.9 8.9 63.9-63.8-9-9z"/>
					</g>
					<path id="&lt;Path&gt;" class="s7" d="m805.3 692.2v-12.7h-463.7v12.7z"/>
					<path id="&lt;Path&gt;" class="s7" d="m654.2 629.3v-12.7h-249.1v12.7z"/>
				</g>
				<g id="&lt;Group&gt;">
					<path id="&lt;Path&gt;" class="s6" d="m935.7 691.8l-13.9-60.3c-1.2-5.4-6-9.2-11.5-9.2h-61.8l-12.2-39.6c-1.2-4-4.9-6.7-9.1-6.7h-58.3c-5.2 0-9.5 4.3-9.5 9.5v106.3z"/>
					<g id="&lt;Group&gt;">
						<path id="&lt;Path&gt;" class="s8" d="m881.8 635.5h20.6c1.2 0 2.2-0.9 2.2-2.1 0-1.2-1-2.2-2.2-2.2h-20.6c-1.2 0-2.2 1-2.2 2.2 0 1.2 1 2.1 2.2 2.1z"/>
						<path id="&lt;Path&gt;" class="s8" d="m881.8 641.2h20.6c1.2 0 2.2-0.9 2.2-2.1 0-1.2-1-2.2-2.2-2.2h-20.6c-1.2 0-2.2 1-2.2 2.2 0 1.2 1 2.1 2.2 2.1z"/>
						<path id="&lt;Path&gt;" class="s8" d="m881.8 646.9h20.6c1.2 0 2.2-0.9 2.2-2.1 0-1.2-1-2.2-2.2-2.2h-20.6c-1.2 0-2.2 1-2.2 2.2 0 1.2 1 2.1 2.2 2.1z"/>
						<path id="&lt;Path&gt;" class="s8" d="m881.8 652.6h20.6c1.2 0 2.2-0.9 2.2-2.1 0-1.2-1-2.2-2.2-2.2h-20.6c-1.2 0-2.2 1-2.2 2.2 0 1.2 1 2.1 2.2 2.1z"/>
					</g>
					<path id="&lt;Path&gt;" class="s8" d="m849 675.8l-22.6-85.3c-0.9-3.3-3.9-5.6-7.2-5.6h-38.1c-4.1 0-7.4 3.4-7.4 7.5v83.4z"/>
					<path id="&lt;Path&gt;" class="s10" d="m824.6 590.9l22.1 83.1h-71.3v-81.6c0-3.2 2.6-5.7 5.7-5.7h38.1c2.5 0 4.8 1.7 5.4 4.2z"/>
				</g>
				<g id="&lt;Group&gt;">
					<g id="&lt;Group&gt;">
						<g id="&lt;Group&gt;">
							<path id="&lt;Path&gt;" class="s11" d="m1388 736.3h-4.9v-25.4h4.9z"/>
							<path id="&lt;Path&gt;" class="s11" d="m1405 736.3h-5v-25.4h5z"/>
							<path id="&lt;Path&gt;" class="s11" d="m1421.9 736.3h-4.9v-25.4h4.9z"/>
						</g>
						<g id="&lt;Group&gt;">
							<g id="&lt;Group&gt;">
								<path id="&lt;Path&gt;" class="s7" d="m1410 880.8c-0.6 0-1.1 0.6-1.1 1.2 0.1 1.8-0.3 3.6-1.8 4.7-5.3 4.1-11.3 0.2-11.2-4.9 0.1-3.6 3.2-6.4 6.8-6.4 0.4 0 0.8-0.3 0.8-0.8v-12.2h-2.2v10.3c0 0.4-0.3 0.7-0.6 0.8-4.1 0.8-7.2 4.5-6.9 8.9 0.2 4.4 3.9 8.1 8.4 8.2 4.9 0.1 8.9-3.8 8.9-8.7 0-0.6-0.5-1.1-1.1-1.1z"/>
								<g id="&lt;Group&gt;">
									<g id="&lt;Group&gt;">
										<g id="&lt;Group&gt;">
											<path id="&lt;Path&gt;" class="s7" d="m1402.4 803.2v57.7"/>
											<path id="&lt;Path&gt;" class="s7" d="m1404.6 860.9h-4.3v-57.7h4.3z"/>
										</g>
										<g id="&lt;Group&gt;">
											<g id="&lt;Group&gt;">
												<path id="&lt;Path&gt;" class="s7" d="m1389.9 803.4l6.3 57.3"/>
												<path id="&lt;Path&gt;" class="s7" d="m1394.1 860.9l-6.4-57.2 4.3-0.5 6.4 57.3z"/>
											</g>
											<g id="&lt;Group&gt;">
												<path id="&lt;Path&gt;" class="s7" d="m1415 803.4l-6.4 57.3"/>
												<path id="&lt;Path&gt;" class="s7" d="m1410.7 860.9l-4.3-0.4 6.4-57.3 4.3 0.5z"/>
											</g>
										</g>
									</g>
									<path id="&lt;Path&gt;" class="s6" d="m1412.5 866.6h-20.2v-4.4c0-3.9 3.2-7.1 7.1-7.1h6c3.9 0 7.1 3.2 7.1 7.1z"/>
								</g>
							</g>
							<path id="&lt;Path&gt;" class="s6" d="m1418.1 809.7h-31.2c-4.1 0-7.5-2.5-7.8-5.7l-6-64.7c-0.3-3.5 3.3-6.6 7.9-6.6h43.1c4.5 0 8.1 3.1 7.8 6.6l-5.9 64.7c-0.3 3.2-3.7 5.7-7.9 5.7z"/>
						</g>
					</g>
					<path id="&lt;Path&gt;" class="s6" d="m1444.9 712.3h-84.7v-19.8h84.7z"/>
				</g>
				<path id="&lt;Path&gt;" class="s6" d="m562.5 691.8h-110.1v-62.8h110.1z"/>
				<g id="&lt;Group&gt;">
					<path id="&lt;Path&gt;" class="s4" d="m479.9 754.6h-27.5v-62.8h27.5z"/>
					<path id="&lt;Path&gt;" class="s12" d="m454.5 752.5v-58.6h23.3v58.6z"/>
				</g>
				<g id="&lt;Group&gt;">
					<path id="&lt;Path&gt;" class="s4" d="m507.4 754.6h-27.5v-62.8h27.5z"/>
					<path id="&lt;Path&gt;" class="s12" d="m482 752.5v-58.6h23.3v58.6z"/>
				</g>
				<g id="&lt;Group&gt;">
					<path id="&lt;Path&gt;" class="s4" d="m534.9 754.6h-27.5v-62.8h27.5z"/>
					<path id="&lt;Path&gt;" class="s12" d="m509.5 752.5v-58.6h23.3v58.6z"/>
				</g>
				<g id="&lt;Group&gt;">
					<path id="&lt;Path&gt;" class="s4" d="m562.5 754.6h-27.6v-62.8h27.6z"/>
					<path id="&lt;Path&gt;" class="s12" d="m537.1 752.5v-58.6h23.3v58.6z"/>
				</g>
				<g id="&lt;Group&gt;">
					<path id="&lt;Path&gt;" class="s11" d="m367.7 685.5c0 14.4-11.7 26.1-26.1 26.1-14.5 0-26.2-11.7-26.2-26.1 0-14.5 11.7-26.2 26.2-26.2 14.4 0 26.1 11.7 26.1 26.2z"/>
					<path id="&lt;Path&gt;" class="s6" d="m365.1 685.5c0 13-10.5 23.5-23.5 23.5-13 0-23.6-10.5-23.6-23.5 0-13.1 10.6-23.6 23.6-23.6 13 0 23.5 10.5 23.5 23.6z"/>
				</g>
				<g id="&lt;Group&gt;">
					<path id="&lt;Path&gt;" class="s11" d="m867.4 341c0 14.5-11.7 26.2-26.1 26.2-14.5 0-26.2-11.7-26.2-26.2 0-14.4 11.7-26.1 26.2-26.1 14.4 0 26.1 11.7 26.1 26.1z"/>
					<path id="&lt;Path&gt;" class="s6" d="m864.8 341c0 13-10.5 23.6-23.5 23.6-13.1 0-23.6-10.6-23.6-23.6 0-13 10.5-23.5 23.6-23.5 13 0 23.5 10.5 23.5 23.5z"/>
				</g>
				<g id="&lt;Group&gt;">
					<path id="&lt;Path&gt;" class="s11" d="m1311.3 623.3c0 14.5-11.7 26.2-26.1 26.2-14.4 0-26.1-11.7-26.1-26.2 0-14.4 11.7-26.1 26.1-26.1 14.4 0 26.1 11.7 26.1 26.1z"/>
					<path id="&lt;Path&gt;" class="s6" d="m1308.7 623.3c0 13.1-10.5 23.6-23.5 23.6-13 0-23.6-10.5-23.6-23.6 0-13 10.6-23.5 23.6-23.5 13 0 23.5 10.5 23.5 23.5z"/>
				</g>
				<g id="&lt;Group&gt;">
					<path id="&lt;Path&gt;" class="s11" d="m1533.6 623.3c0 14.5-11.7 26.2-26.1 26.2-14.4 0-26.1-11.7-26.1-26.2 0-14.4 11.7-26.1 26.1-26.1 14.4 0 26.1 11.7 26.1 26.1z"/>
					<path id="&lt;Path&gt;" class="s6" d="m1531.1 623.3c0 13.1-10.6 23.6-23.6 23.6-13 0-23.6-10.5-23.6-23.6 0-13 10.6-23.5 23.6-23.5 13 0 23.6 10.5 23.6 23.5z"/>
				</g>
			</g>
			<path id="&lt;Path&gt;" class="s11" d="m1020.8 1372.3h-358.7v-65.2h358.7z"/>
		</g>
		<path id="&lt;Path&gt;" class="s2" d="m2508 1598.9h-2508v-226.9h2508z"/>
		<g id="&lt;Group&gt;">
			<path id="&lt;Path&gt;" class="s13" d="m2425.3 1382.4h-31.5c-2.2 0-3.8-2-3.2-4.1l5.1-20.2 3.1-12 7.5-29.6c0.9-3.3 5.6-3.3 6.5 0l7.5 29.6 3.1 12 5.2 20.2c0.5 2.1-1.1 4.1-3.3 4.1z"/>
			<path id="&lt;Path&gt;" class="s8" d="m2423.4 1358.1h-27.7l3.1-12h21.5z"/>
			<path id="&lt;Path&gt;" class="s14" d="m2436.1 1383.6h-53c-1.6 0-2.9-1.3-2.9-2.9v-1.2c0-1.6 1.3-2.9 2.9-2.9h53c1.6 0 2.9 1.3 2.9 2.9v1.2c0 1.6-1.3 2.9-2.9 2.9z"/>
		</g>
		<g id="&lt;Group&gt;">
			<path id="&lt;Path&gt;" class="s13" d="m1981.4 1382.4h-31.5c-2.2 0-3.8-2-3.2-4.1l5.1-20.2 3.1-12 7.5-29.6c0.9-3.3 5.6-3.3 6.5 0l7.5 29.6 3.1 12 5.1 20.2c0.6 2.1-1 4.1-3.2 4.1z"/>
			<path id="&lt;Path&gt;" class="s8" d="m1979.5 1358.1h-27.7l3.1-12h21.5z"/>
			<path id="&lt;Path&gt;" class="s14" d="m1992.1 1383.6h-52.9c-1.7 0-3-1.3-3-2.9v-1.2c0-1.6 1.3-2.9 3-2.9h52.9c1.6 0 3 1.3 3 2.9v1.2c0 1.6-1.4 2.9-3 2.9z"/>
		</g>
		<g id="&lt;Group&gt;">
			<path id="&lt;Path&gt;" class="s13" d="m164.4 1382.4h-31.6c-2.1 0-3.7-2-3.2-4.1l5.2-20.2 3-12 7.6-29.6c0.8-3.3 5.6-3.3 6.4 0l7.6 29.6 3 12 5.2 20.2c0.5 2.1-1.1 4.1-3.2 4.1z"/>
			<path id="&lt;Path&gt;" class="s8" d="m162.4 1358.1h-27.6l3-12h21.6z"/>
			<path id="&lt;Path&gt;" class="s14" d="m175.1 1383.6h-53c-1.6 0-2.9-1.3-2.9-2.9v-1.2c0-1.6 1.3-2.9 2.9-2.9h53c1.6 0 2.9 1.3 2.9 2.9v1.2c0 1.6-1.3 2.9-2.9 2.9z"/>
		</g>
		<g id="&lt;Group&gt;">
			<path id="&lt;Path&gt;" class="s13" d="m1857.3 1382.4h-31.6c-2.1 0-3.7-2-3.2-4.1l5.2-20.2 3-12 7.6-29.6c0.8-3.3 5.6-3.3 6.4 0l7.6 29.6 3 12 5.2 20.2c0.5 2.1-1.1 4.1-3.2 4.1z"/>
			<path id="&lt;Path&gt;" class="s8" d="m1855.3 1358.1h-27.6l3-12h21.6z"/>
			<path id="&lt;Path&gt;" class="s14" d="m1868 1383.6h-53c-1.6 0-2.9-1.3-2.9-2.9v-1.2c0-1.6 1.3-2.9 2.9-2.9h53c1.6 0 2.9 1.3 2.9 2.9v1.2c0 1.6-1.3 2.9-2.9 2.9z"/>
		</g>
		<g id="&lt;Group&gt;">
			<path id="&lt;Path&gt;" class="s13" d="m718.6 1382.4h-31.5c-2.2 0-3.8-2-3.2-4.1l5.1-20.2 3.1-12 7.6-29.6c0.8-3.3 5.5-3.3 6.4 0l7.5 29.6 3.1 12 5.2 20.2c0.5 2.1-1.1 4.1-3.3 4.1z"/>
			<path id="&lt;Path&gt;" class="s8" d="m716.7 1358.1h-27.7l3.1-12h21.5z"/>
			<path id="&lt;Path&gt;" class="s14" d="m729.4 1383.6h-53c-1.6 0-2.9-1.3-2.9-2.9v-1.2c0-1.6 1.3-2.9 2.9-2.9h53c1.6 0 2.9 1.3 2.9 2.9v1.2c0 1.6-1.3 2.9-2.9 2.9z"/>
		</g>
	</g>
</svg>